<svg width="113" height="73" viewBox="0 0 113 73" fill="none" xmlns="http://www.w3.org/2000/svg">
<g clip-path="url(#clip0_276_2805)">
<mask id="mask0_276_2805" style="mask-type:luminance" maskUnits="userSpaceOnUse" x="26" y="0" width="62" height="42">
<path d="M87.8094 0.213867H26.1562V41.2073H87.8094V0.213867Z" fill="white"/>
</mask>
<g mask="url(#mask0_276_2805)">
<path d="M81.907 33.8C81.7959 33.8391 81.6829 33.8738 81.5709 33.9108L81.4023 33.9657L81.3182 33.993L81.2329 34.0184C81.0057 34.0864 80.7798 34.1565 80.5489 34.2171C80.0911 34.3452 79.6235 34.4532 79.1523 34.551L78.7973 34.6193C78.738 34.6314 78.6785 34.6413 78.6189 34.6509L78.4395 34.6807C78.2018 34.7229 77.9594 34.7524 77.7186 34.7862C77.2341 34.8446 76.745 34.8862 76.2522 34.9073C75.7584 34.925 75.2616 34.9231 74.7625 34.8976C74.2638 34.8728 73.7632 34.8191 73.2645 34.7431C72.7658 34.6655 72.2683 34.5656 71.777 34.4337C71.2854 34.3027 70.8 34.1451 70.324 33.9613C69.3718 33.5933 68.4588 33.1184 67.6159 32.5511C66.7715 31.9851 65.9943 31.3309 65.2948 30.6141C64.595 29.8975 63.9718 29.1192 63.4247 28.3008C62.8776 27.4818 62.4061 26.6223 62.0055 25.7364C61.6048 24.8501 61.2746 23.9374 61.0136 23.0055C60.7529 22.0736 60.5615 21.1225 60.4441 20.1569C60.3275 19.1912 60.2843 18.2104 60.3315 17.2183C60.3799 16.2264 60.5155 15.2224 60.7852 14.2157C60.9205 13.7126 61.0859 13.2093 61.2982 12.7103C61.3525 12.5858 61.4047 12.461 61.4649 12.3373L61.5536 12.1517L61.6483 11.9669L61.6961 11.8747L61.747 11.7831L61.8497 11.6001C61.8851 11.5392 61.9226 11.479 61.9589 11.4185C61.9959 11.358 62.0316 11.2978 62.0719 11.2381L62.1895 11.0592C62.2289 10.9995 62.2721 10.941 62.314 10.8823C62.3959 10.7641 62.4865 10.6492 62.5765 10.534C62.7609 10.3059 62.9558 10.0822 63.1705 9.87066C63.5938 9.44413 64.0854 9.06212 64.6195 8.74411C64.6872 8.70541 64.7551 8.66758 64.8231 8.63006L64.9255 8.57392L65.0301 8.52153L65.2399 8.41884L65.4537 8.32542L65.5611 8.27974L65.67 8.23816C65.7423 8.21078 65.815 8.18344 65.8882 8.15697L66.1086 8.08568L66.2194 8.05077L66.3305 8.02051L66.553 7.96145C66.6271 7.94429 66.7016 7.92828 66.7761 7.91198L66.8878 7.88815C66.9251 7.88027 66.9623 7.87474 66.9992 7.86807L67.1321 7.84535C67.1861 7.83635 67.2422 7.82732 67.295 7.81947C67.3475 7.80988 67.4015 7.80814 67.4548 7.80491C67.5085 7.80203 67.5619 7.7997 67.6156 7.79793C67.669 7.79647 67.7217 7.79359 67.7798 7.79474L67.9433 7.79793C68.0426 7.7988 68.1398 7.80929 68.2381 7.81714C68.3368 7.8244 68.4321 7.83955 68.5286 7.85379C68.9122 7.91403 69.2775 8.01849 69.6136 8.15117C69.95 8.28412 70.2594 8.44385 70.5403 8.61901C71.1008 8.97048 71.5626 9.37343 71.9579 9.78889C72.3555 10.2052 72.6885 10.6367 72.988 11.0734C73.2831 11.5107 73.5444 11.9541 73.7766 12.4013C74.2402 13.2957 74.603 14.2043 74.8969 15.1214C75.1908 16.0385 75.417 16.9646 75.5862 17.8965C75.7553 18.8287 75.8673 19.7667 75.9251 20.7088C75.9822 21.6506 75.9856 22.5959 75.9313 23.5414C75.8763 24.4867 75.764 25.432 75.5896 26.3709C75.4149 27.3098 75.1771 28.2429 74.8677 29.1594C74.5586 30.0756 74.18 30.9758 73.725 31.8442C73.2691 32.7119 72.7375 33.5473 72.133 34.3319C71.5287 35.1164 70.8472 35.8461 70.1086 36.509C69.7393 36.841 69.3526 37.1526 68.9557 37.4477C68.5575 37.7423 68.1491 38.0216 67.7279 38.277C67.3077 38.5333 66.8779 38.7726 66.4409 38.9926C66.003 39.2105 65.5586 39.4107 65.1089 39.5947C64.6586 39.775 64.204 39.9401 63.7465 40.0882C63.632 40.1251 63.5169 40.1592 63.4023 40.1946L63.2301 40.2471L63.0572 40.2958L62.7112 40.3917L62.3646 40.4795C62.3065 40.4938 62.2488 40.5096 62.1911 40.5226L62.0173 40.5624C61.9015 40.5888 61.7858 40.6161 61.6697 40.6409C61.4376 40.6874 61.2054 40.7383 60.973 40.7778L60.6241 40.8401L60.2753 40.8948L60.1012 40.9221L59.9268 40.9456L59.578 40.9925C58.6482 41.1076 57.7196 41.1716 56.797 41.1958L56.6238 41.2008L56.4509 41.2029L56.1055 41.2063C55.9904 41.2085 55.8759 41.2057 55.7607 41.2051L55.4162 41.202C55.1838 41.1964 54.9495 41.1893 54.7158 41.1812L54.3642 41.1623C54.2469 41.1551 54.1302 41.1508 54.0126 41.1402C53.0738 41.0729 52.1312 40.9519 51.1921 40.7678C51.0748 40.7452 50.9575 40.7188 50.8402 40.694L50.6646 40.6561L50.5767 40.6369L50.4892 40.6158C50.2555 40.5583 50.0215 40.5043 49.7891 40.4379C49.3229 40.3147 48.8611 40.1648 48.4021 40.0056C48.174 39.9203 47.9444 39.8405 47.7191 39.7465C47.6061 39.7002 47.4922 39.6565 47.3802 39.6077L47.0441 39.4606C46.5981 39.2586 46.1568 39.0432 45.7279 38.8021L45.5665 38.713C45.5131 38.6829 45.4604 38.651 45.407 38.6199L45.0895 38.4315C44.8813 38.2996 44.6709 38.1709 44.4682 38.0306C44.2621 37.895 44.0632 37.7491 43.8633 37.6051C43.7643 37.5315 43.6669 37.4558 43.5688 37.381C43.5201 37.3432 43.4705 37.3065 43.4227 37.2678L43.279 37.1511L43.1356 37.0344C43.0878 36.9959 43.0403 36.9565 42.9938 36.9158L42.7141 36.6741C42.6217 36.5924 42.532 36.5083 42.4407 36.4255C42.3951 36.3836 42.3495 36.3426 42.3048 36.3004L42.172 36.1722L42.0398 36.0434C41.9954 36.0006 41.9516 35.9578 41.9091 35.9134L41.6521 35.6493C41.5671 35.5605 41.4855 35.4693 41.402 35.3793C41.3607 35.334 41.3185 35.2893 41.2779 35.2434L41.1571 35.105L41.0367 34.9662L40.9765 34.8967L40.9182 34.826L40.6851 34.5426C40.6088 34.447 40.5346 34.3505 40.4592 34.2543C40.4219 34.2059 40.3835 34.1581 40.3475 34.1094L40.2391 33.9623C40.0924 33.7674 39.9552 33.5672 39.8158 33.368C39.6821 33.1656 39.5458 32.9648 39.4198 32.7587C39.2895 32.5545 39.1685 32.3457 39.0456 32.1384C38.9279 31.9283 38.8081 31.7191 38.698 31.5062C38.5835 31.2945 38.4789 31.0796 38.3715 30.8655C38.2697 30.6493 38.1651 30.434 38.0701 30.2158C37.9715 29.9988 37.8815 29.7788 37.7893 29.5594C37.7021 29.3389 37.6127 29.1186 37.532 28.8964C37.4476 28.675 37.3719 28.4515 37.2937 28.2286C37.2207 28.0046 37.145 27.7811 37.078 27.5559C36.5265 25.757 36.1826 23.9217 35.9998 22.0858C35.8183 20.2491 35.7978 18.4094 35.9198 16.5811C36.0433 14.7528 36.3083 12.9349 36.7322 11.1375C36.9433 10.2384 37.199 9.34491 37.5013 8.4581C37.8048 7.57129 38.1595 6.69118 38.5866 5.82153C38.8007 5.38686 39.0335 4.9548 39.2914 4.5268C39.5496 4.09884 39.8326 3.67491 40.1516 3.25799C40.4716 2.84164 40.8303 2.43199 41.244 2.03979C41.294 1.99062 41.3492 1.94232 41.4029 1.89402C41.4576 1.84572 41.51 1.79743 41.5665 1.75C41.6813 1.65544 41.7927 1.56088 41.9159 1.47011C42.1549 1.28652 42.4187 1.11312 42.7011 0.953093C42.7725 0.913524 42.8442 0.874247 42.9165 0.835842C42.9916 0.798892 43.0673 0.762231 43.143 0.726445C43.2172 0.689787 43.2985 0.65749 43.3774 0.624615C43.4568 0.592029 43.5356 0.559151 43.62 0.530928C43.9475 0.410475 44.3031 0.321736 44.669 0.267911C44.8515 0.238816 45.0389 0.226014 45.2255 0.215831C45.3204 0.214085 45.4101 0.213504 45.5147 0.214085C45.5643 0.213504 45.6187 0.216995 45.672 0.220486C45.7257 0.223687 45.7791 0.22776 45.8325 0.231833C45.8859 0.236197 45.9392 0.240853 45.9926 0.246381C46.0454 0.253363 46.0985 0.261219 46.1512 0.269075C46.2043 0.27693 46.257 0.285659 46.3095 0.294678L46.3886 0.308644L46.4668 0.325519C46.5708 0.348794 46.6745 0.374107 46.7775 0.401165C46.8783 0.434333 46.9798 0.468665 47.0795 0.505034C47.4767 0.659529 47.846 0.881522 48.1747 1.15269C48.5036 1.42414 48.7907 1.74651 49.0321 2.10059C49.0619 2.14511 49.0914 2.18992 49.1206 2.23472L49.1637 2.30251C49.1774 2.32462 49.1892 2.34557 49.2019 2.3671L49.272 2.48959C49.2944 2.52916 49.317 2.56902 49.3363 2.60743C49.3757 2.68482 49.416 2.76337 49.4527 2.84077C49.4874 2.917 49.5216 2.99351 49.5548 3.07032C49.6814 3.37378 49.7776 3.66765 49.8561 3.95394C50.0107 4.52566 50.0926 5.06448 50.1444 5.58731C50.1931 6.10869 50.2087 6.61291 50.204 7.10754C50.191 8.09444 50.0979 9.04232 49.9591 9.97103C49.8195 10.8991 49.6317 11.8066 49.4083 12.7004C49.1845 13.5939 48.9241 14.4732 48.6299 15.3396C48.3357 16.2061 48.0099 17.0606 47.6492 17.9017C47.4689 18.3224 47.2809 18.7399 47.0841 19.1542C46.8867 19.5683 46.681 19.9788 46.4662 20.3858C46.0373 21.1999 45.5706 21.9985 45.0631 22.7786C44.5567 23.5589 44.0052 24.3186 43.4047 25.0518C42.8041 25.7847 42.1506 26.4894 41.433 27.1495C40.7155 27.8091 39.9331 28.4244 39.0741 28.9624C38.2157 29.4998 37.2785 29.9586 36.2745 30.2877C35.2724 30.6179 34.2051 30.8134 33.1326 30.846C33.0665 30.8475 33.001 30.8486 32.9358 30.8501C32.8706 30.8515 32.8064 30.8524 32.7425 30.8507C32.6143 30.8477 32.4883 30.8471 32.3648 30.8408C32.2412 30.8329 32.1196 30.8253 31.9998 30.8178C31.8809 30.8056 31.764 30.7933 31.6485 30.7814C31.1891 30.725 30.766 30.6432 30.3788 30.5446C29.993 30.4427 29.6403 30.3316 29.3238 30.2074C29.2444 30.1765 29.1664 30.1465 29.0908 30.1157C29.0163 30.0831 28.9429 30.0508 28.8711 30.0194C28.7998 29.9871 28.7288 29.9569 28.6616 29.9237C28.5947 29.8902 28.5289 29.8573 28.4646 29.8251C28.4006 29.7922 28.3375 29.7608 28.2772 29.7276C28.2176 29.6935 28.1591 29.6604 28.1018 29.6278C28.0451 29.5946 27.9895 29.562 27.9348 29.53C27.8804 29.498 27.8295 29.4637 27.7789 29.4311C27.6782 29.3651 27.5822 29.3016 27.4928 29.2376C27.4044 29.1725 27.3212 29.109 27.2429 29.0471C27.2039 29.0159 27.1652 28.986 27.1292 28.9548C27.0931 28.9237 27.0585 28.8928 27.0247 28.8626C26.9572 28.8018 26.8944 28.7427 26.8359 28.6851C26.7195 28.569 26.6232 28.4556 26.54 28.35C26.4562 28.2449 26.3922 28.1405 26.3384 28.0439C26.2851 27.9467 26.2447 27.8551 26.2156 27.7675C26.1595 27.59 26.1464 27.4314 26.1629 27.2848C26.1967 26.9915 26.348 26.7451 26.5188 26.4943C26.6896 26.2435 26.8664 26.0139 27.1146 25.8626C27.2386 25.787 27.38 25.7308 27.5458 25.7006C27.6293 25.6843 27.7192 25.6732 27.8161 25.6697C27.9133 25.6654 28.0163 25.6715 28.1297 25.6785C28.2429 25.686 28.3631 25.7041 28.4934 25.725C28.5589 25.7352 28.6264 25.7471 28.6962 25.7614C28.7311 25.7684 28.7666 25.7759 28.8027 25.7841C28.8388 25.7916 28.8757 25.7992 28.9135 25.8071C28.9889 25.8231 29.0666 25.8411 29.1469 25.8612C29.2275 25.8801 29.3113 25.8984 29.3971 25.9205C29.4402 25.931 29.4835 25.9438 29.5283 25.9537C29.5728 25.9645 29.6182 25.9752 29.6645 25.9863C29.7104 25.9979 29.757 26.0101 29.8047 26.0224C29.8522 26.0334 29.9007 26.0451 29.9502 26.0567C30.3439 26.1518 30.7887 26.2551 31.2932 26.3363C31.7977 26.4131 32.361 26.4736 32.9945 26.4521C33.6375 26.432 34.2749 26.3174 34.9025 26.1111C35.5297 25.9054 36.1466 25.6083 36.7419 25.2356C37.3374 24.8629 37.9109 24.4157 38.4562 23.9144C39.0015 23.4131 39.5188 22.8577 40.0055 22.2636C40.4921 21.6695 40.9511 21.0393 41.3784 20.3806C41.8064 19.7225 42.207 19.0384 42.5773 18.3344C42.7629 17.9826 42.9416 17.6262 43.1136 17.2657C43.2846 16.9049 43.4494 16.5403 43.6067 16.1723C43.9223 15.4368 44.2085 14.687 44.4657 13.9288C44.723 13.1706 44.9502 12.4034 45.1432 11.6326C45.3362 10.8619 45.4955 10.0874 45.6112 9.31875C46.2499 5.06075 45.2034 2.32772 42.5307 7.76302C42.2015 8.43367 41.9116 9.14737 41.6596 9.88345C41.4085 10.6204 41.191 11.3783 41.01 12.1496C40.6457 13.692 40.4129 15.2811 40.3056 16.8764C40.1988 18.4717 40.2177 20.0751 40.3741 21.6532C40.5306 23.2307 40.8251 24.7847 41.2797 26.2668C41.7341 27.7483 42.3507 29.1582 43.1452 30.4267C43.9385 31.6955 44.9108 32.8186 46.0448 33.736C47.1778 34.655 48.4717 35.3669 49.8722 35.8644C50.2242 35.9854 50.5783 36.1021 50.9417 36.1971C51.122 36.2492 51.306 36.2908 51.4888 36.3361L51.5574 36.3532L51.6266 36.3678L51.7653 36.3975C51.8585 36.4168 51.95 36.4382 52.0434 36.4565C52.7882 36.6017 53.5501 36.7004 54.3226 36.7563C54.4188 36.7653 54.5162 36.7684 54.6131 36.774L54.9039 36.7901L55.4895 36.8075L55.788 36.81C55.8877 36.8103 55.9876 36.8131 56.0866 36.8109L56.3845 36.8078L56.5335 36.8063L56.6818 36.8019C57.4738 36.7811 58.2593 36.7265 59.0321 36.6309C60.5763 36.4363 62.0738 36.0819 63.4554 35.5214C64.8371 34.9628 66.0974 34.1966 67.1758 33.2333C67.7134 32.7501 68.2087 32.2209 68.6512 31.6462C69.0938 31.0715 69.4876 30.4547 69.8296 29.8035C70.5114 28.4995 70.9893 27.0622 71.2659 25.5664C71.4052 24.8187 71.4961 24.057 71.5408 23.2895C71.5849 22.522 71.5824 21.7486 71.5356 20.9779C71.4884 20.2072 71.3962 19.4391 71.259 18.6829C71.1216 17.927 70.9394 17.1828 70.7094 16.4662C70.4804 15.7496 70.2011 15.0606 69.8749 14.4316C69.712 14.117 69.5354 13.8212 69.3514 13.5474C68.3852 12.1409 67.4865 11.7526 66.2752 12.9835C66.1834 13.0722 66.0971 13.1735 66.0111 13.2782C65.9698 13.3329 65.9264 13.3853 65.8867 13.4438C65.8665 13.4729 65.8451 13.4996 65.8258 13.5299L65.7669 13.6195C65.7464 13.6486 65.7284 13.6806 65.7091 13.7118C65.6905 13.7432 65.6707 13.7737 65.6523 13.8057L65.598 13.9035L65.5707 13.9524L65.5447 14.0033L65.4925 14.1045L65.4429 14.2093C65.4087 14.2779 65.3789 14.3515 65.347 14.4234C65.2228 14.7138 65.1195 15.0274 65.032 15.3527C64.8563 16.0039 64.7573 16.7094 64.7222 17.4304C64.6878 18.1522 64.7185 18.8918 64.8082 19.6291C64.9876 21.1045 65.3979 22.5711 66.0102 23.9252C66.3165 24.6022 66.6737 25.2516 67.0796 25.8597C67.4859 26.4672 67.9408 27.0331 68.4402 27.544C68.9389 28.0549 69.4823 28.5106 70.0627 28.9001C70.6427 29.2906 71.2621 29.6118 71.9101 29.8623C72.2341 29.9877 72.5656 30.0953 72.9032 30.1856C73.2403 30.2766 73.5851 30.3453 73.9339 30.3994C74.283 30.4523 74.6365 30.4913 74.9947 30.5088C75.3528 30.5265 75.7144 30.5283 76.0781 30.5158C76.4424 30.4998 76.8083 30.4686 77.1758 30.425C77.3595 30.3982 77.5435 30.377 77.7276 30.3438L77.866 30.3211C77.9119 30.3139 77.9581 30.306 78.0041 30.2967L78.2809 30.2434C78.6493 30.1663 79.0186 30.0822 79.3867 29.9787C79.571 29.9307 79.7544 29.8731 79.9388 29.8187L80.0077 29.798L80.0762 29.7756L80.2137 29.7308C80.3056 29.7005 80.3975 29.6726 80.4887 29.6403C81.2102 29.3927 81.8449 29.1495 82.4066 28.9315C82.969 28.7151 83.4575 28.5175 83.8879 28.3596C84.3177 28.1989 84.6886 28.0721 85.0117 27.9802C85.1727 27.933 85.3223 27.8961 85.4614 27.8678C85.6001 27.8384 85.7276 27.8164 85.8465 27.8035C85.9654 27.7904 86.0746 27.7858 86.1761 27.7884C86.2766 27.7899 86.3691 27.7986 86.4548 27.8143C86.6258 27.8457 86.7685 27.9039 86.892 27.9819C87.1391 28.1381 87.3073 28.3738 87.4696 28.6301C87.6319 28.8865 87.7744 29.1384 87.8026 29.4305C87.8169 29.5766 87.8026 29.7328 87.747 29.9048C87.7194 29.9909 87.6816 30.0808 87.6322 30.1757C87.5816 30.269 87.5192 30.3671 87.4435 30.4704C87.3678 30.5734 87.279 30.6828 87.1738 30.7963C87.068 30.9088 86.9473 31.027 86.8095 31.1515C86.5327 31.3988 86.1857 31.6679 85.7512 31.9565C85.3152 32.243 84.7944 32.553 84.1607 32.8655C83.5276 33.179 82.7849 33.5008 81.9067 33.8021L81.907 33.8Z" fill="#281B03"/>
</g>
<path d="M2.86396 70.9313C2.86396 70.7131 3.1246 70.3193 3.64588 69.7495C4.16717 69.1676 4.4884 68.5857 4.60966 68.0038C4.74301 67.4219 4.80967 64.3548 4.80967 58.8024C4.80967 53.2503 4.68237 49.8862 4.42779 48.7103C4.30657 48.1405 4.05199 47.7222 3.66406 47.4556C2.96094 46.9584 2.60938 46.6918 2.60938 46.6555C2.60938 46.2068 2.84577 45.8918 3.31856 45.7099C4.21564 45.3583 5.26427 45.1826 6.46443 45.1826H7.06451C7.62217 45.1826 8.01616 45.4067 8.24649 45.8554C8.48897 46.3039 8.61019 47.2917 8.61019 48.8192L8.592 49.4921C8.57987 49.9408 8.57381 50.3893 8.57381 50.8377L8.53744 52.1834C8.53744 52.6318 8.53744 53.0806 8.53744 53.529C8.53744 55.1171 8.81629 55.9112 9.37391 55.9112C9.43452 55.8991 9.74366 55.7719 10.3013 55.5292C11.9864 54.7779 13.3987 54.402 14.5383 54.402C16.6719 54.402 18.1691 55.2564 19.0298 56.9658C19.5995 58.1296 19.8844 60.9907 19.8844 65.549C19.8844 67.3068 19.945 68.4039 20.0663 68.8402C20.1996 69.2644 20.5451 69.707 21.1028 70.1675C21.6725 70.6284 21.9574 70.9192 21.9574 71.0405C21.9574 71.4164 21.7089 71.6709 21.2119 71.8043C20.727 71.9374 19.4783 72.0042 17.4659 72.0042H16.8295C15.5081 72.0042 14.8474 71.7376 14.8474 71.2041C14.8474 71.0831 15.005 70.7799 15.3202 70.2951C15.6354 69.7979 15.8415 69.2402 15.9385 68.622C16.0354 68.0038 16.0839 66.3854 16.0839 63.7667C16.0839 61.1483 15.9627 59.4994 15.7202 58.8207C14.8837 57.7295 13.9564 57.0629 12.938 56.8205C11.5439 56.8205 10.4286 57.3174 9.59215 58.3114C8.97388 59.0389 8.66475 60.6999 8.66475 63.294C8.66475 65.8761 8.72536 67.525 8.84658 68.24C8.9678 68.9432 9.22846 69.5857 9.62849 70.1675C10.0407 70.7373 10.2468 71.089 10.2468 71.2224C10.2468 71.6588 9.0163 71.8769 6.55536 71.8769C4.09442 71.8769 2.86396 71.5619 2.86396 70.9313ZM42.1521 69.9494C42.6855 70.3615 42.9521 70.6585 42.9521 70.8404C42.9521 71.0101 42.8612 71.174 42.6793 71.3313C42.1583 71.8043 41.0429 72.0408 39.3335 72.0408C38.7758 72.0408 38.3395 71.9499 38.0242 71.768C37.7213 71.574 37.4485 71.2283 37.2061 70.7314C36.9758 70.2343 36.7819 69.9857 36.6242 69.9857C36.4666 69.9978 36.1149 70.198 35.5693 70.5859C34.0418 71.6892 32.581 72.2406 31.187 72.2406C31.1749 72.2406 31.1567 72.2406 31.1325 72.2406H30.587C28.5867 72.2406 27.138 71.3922 26.2409 69.6949C25.7803 68.8098 25.5439 66.6461 25.5317 63.2031C25.5317 59.748 25.4772 57.8509 25.3681 57.5114C25.259 57.1598 24.871 56.8327 24.2043 56.5294C23.5497 56.2141 23.2223 55.9718 23.2223 55.802C23.2223 55.3535 23.4345 55.0624 23.8588 54.9293C24.8043 54.6261 26.0106 54.4746 27.4774 54.4746C28.3261 54.4746 28.8655 54.8201 29.0959 55.5112C29.3989 56.396 29.5505 58.5116 29.5505 61.8574C29.5505 65.1912 29.6959 67.2159 29.9869 67.9309C30.4839 69.1555 31.3871 69.7675 32.6965 69.7675C33.3752 69.7675 34.048 69.5919 34.7147 69.2402C35.3937 68.8886 35.921 68.416 36.2968 67.822C36.6726 67.228 36.8604 65.5974 36.8604 62.9303C36.8604 60.2511 36.7698 58.5662 36.5879 57.8751C36.4181 57.184 36.1512 56.6446 35.7875 56.2567C35.4241 55.8566 35.2422 55.5413 35.2422 55.311C35.2422 54.7779 36.6664 54.511 39.5154 54.511C40.1094 54.511 40.4973 54.6444 40.6792 54.911C40.861 55.1658 40.952 55.6384 40.952 56.3296L40.8973 57.4024L40.8064 62.2392C40.8064 65.3913 40.8973 67.3611 41.0792 68.1491C41.2611 68.9249 41.6189 69.5251 42.1521 69.9494ZM57.8735 68.5311C57.9707 68.0581 58.0191 66.44 58.0191 63.6758C58.0191 60.9118 57.8068 59.1056 57.3825 58.2568C56.9583 57.4083 56.1703 56.9841 55.0187 56.9841C54.3275 56.9841 53.6125 57.2569 52.8729 57.8025C52.1334 58.3357 51.6424 58.9296 51.4 59.5845C51.1573 60.239 51.0363 61.7665 51.0363 64.1667C51.0363 66.5551 51.0543 68.028 51.0909 68.5857C51.1393 69.1434 51.2303 69.5798 51.3637 69.8948L51.5999 70.3494C51.7939 70.7252 51.891 70.998 51.891 71.1678C51.891 71.6162 50.9634 71.8406 49.1088 71.8406C47.2538 71.8406 46.0478 71.6529 45.4901 71.277L45.1627 70.9313C45.1627 70.5921 45.2841 70.301 45.5264 70.0586C46.2539 69.3191 46.684 68.7555 46.8175 68.3675C46.9509 67.9796 47.0177 66.264 47.0177 63.2214C47.0177 60.1664 46.757 58.1721 46.2356 57.2386L45.8539 56.7476C45.5386 56.3476 45.3809 56.0447 45.3809 55.8383C45.3809 55.6201 45.6053 55.3719 46.0537 55.0929C46.5146 54.8021 47.2237 54.6565 48.1814 54.6565C49.1513 54.6565 49.8784 54.9172 50.3635 55.4383C50.8482 55.9475 51.194 56.202 51.4 56.202L51.9456 55.9475L53.3276 55.1292C54.4548 54.5352 55.6005 54.2382 56.7643 54.2382C57.9281 54.2382 59.0373 54.596 60.0922 55.311C61.1467 56.0143 61.8074 56.3659 62.074 56.3659L62.6922 56.0748L63.3651 55.6748C63.9349 55.3352 64.5472 55.0323 65.2017 54.7654C65.8323 54.4989 66.6687 54.3654 67.7111 54.3654C69.6995 54.3654 71.1057 55.19 71.93 56.8385C72.5361 58.0508 72.8393 60.8876 72.8393 65.3488C72.8393 67.2643 72.8998 68.3797 73.0211 68.6947C73.1422 68.9979 73.4696 69.3675 74.0031 69.8038C74.5362 70.2405 74.8031 70.495 74.8031 70.5676V71.0042L74.4577 71.3313C73.8758 71.683 72.3967 71.8589 70.0207 71.8589C68.8811 71.8589 68.3113 71.5799 68.3113 71.0222C68.3113 70.9617 68.3902 70.6889 68.5478 70.2042C68.7173 69.7191 68.8144 69.3312 68.8386 69.0404C68.8749 68.7372 68.8932 67.1917 68.8932 64.4032C68.8932 61.6151 68.7539 59.8694 68.4749 59.1661C68.2083 58.4508 67.8688 57.9055 67.4567 57.5297C67.0566 57.1418 66.4443 56.9478 65.62 56.9478C64.7958 56.9478 64.0987 57.1719 63.5289 57.6206C62.9591 58.0691 62.5591 58.5721 62.3288 59.1298C62.0982 59.6754 61.9831 61.3361 61.9831 64.1124C61.9831 66.8884 62.0681 68.4948 62.2379 68.9311C62.4073 69.3554 62.7227 69.7737 63.1832 70.1859C63.6562 70.598 63.8927 70.8708 63.8927 71.0042C63.8927 71.6103 62.8319 71.9132 60.7104 71.9132H58.1646C56.8916 71.9132 56.2551 71.7314 56.2551 71.368C56.2551 70.9921 56.4127 70.6343 56.728 70.2951C57.4068 69.5798 57.7888 68.9916 57.8735 68.5311ZM88.1424 60.1118V59.5482C88.1424 58.651 87.8212 57.8447 87.1785 57.1297C86.536 56.4022 85.7481 56.0385 84.8146 56.0385H84.4691C84.2994 56.0627 84.1842 56.0748 84.1237 56.0748C83.2749 56.0748 82.469 56.5599 81.7052 57.5297C80.9535 58.4995 80.5777 59.5361 80.5777 60.639V60.8755C80.5777 61.2634 80.808 61.4574 81.2685 61.4574C81.4504 61.4937 81.5475 61.512 81.5596 61.512L81.978 61.53H82.0869L82.2142 61.512L85.7239 61.3119L86.3784 61.2392C87.5543 61.2392 88.1424 60.8634 88.1424 60.1118ZM80.5777 64.9305C80.5777 66.3124 81.0991 67.4703 82.1416 68.4039C83.184 69.3374 84.5055 69.8038 86.1056 69.8038C86.7483 69.8038 87.3302 69.7132 87.8513 69.5313C88.3848 69.3374 88.9608 69.1068 89.579 68.8402C90.2093 68.5736 90.6034 68.4402 90.7608 68.4402C91.2458 68.4402 91.4882 68.7009 91.4882 69.2219C91.4882 69.9252 90.5913 70.6768 88.7969 71.4769C87.6331 71.9983 86.3846 72.259 85.051 72.259H84.651C82.3718 72.259 80.4806 71.5678 78.9776 70.1859C78.1651 69.4342 77.5348 68.4765 77.0863 67.3127C76.6379 66.1368 76.4135 64.8762 76.4135 63.5305L76.4318 63.1122V62.6938C76.4318 61.53 76.6984 60.3845 77.2319 59.2571C77.7772 58.1296 78.4258 57.2023 79.1774 56.4748C80.7655 54.9473 82.6508 54.1776 84.8329 54.1655C88.1303 54.1655 90.3244 55.4504 91.4156 58.0207C91.7551 58.8328 91.9246 59.5783 91.9246 60.2573V60.621C91.9246 61.4574 91.5791 62.021 90.8883 62.3121C90.1972 62.5908 88.5666 62.8211 85.9967 63.0029C83.4267 63.1848 82.0323 63.3061 81.8141 63.3667C80.9899 63.5727 80.5777 64.0941 80.5777 64.9305ZM98.0812 62.5666V63.2394C98.0812 65.3004 98.4812 67.0098 99.2813 68.3675C99.6571 69.01 100.136 69.5192 100.718 69.8948C101.3 70.2706 101.888 70.4586 102.482 70.4586H102.845C103.949 70.4586 104.9 69.9252 105.7 68.8585C106.513 67.7794 106.919 66.2519 106.919 64.276V62.9849C106.919 61.0332 106.513 59.3784 105.7 58.0207C104.9 56.6508 103.882 55.9659 102.645 55.9659H102.082C100.966 55.9659 100.021 56.5658 99.245 57.7659C98.4691 58.9663 98.0812 60.5664 98.0812 62.5666ZM111.301 62.6395V63.5485C111.301 64.5062 111.107 65.5549 110.719 66.6945C109.907 69.0705 108.289 70.7314 105.864 71.6771C104.809 72.0892 103.791 72.2953 102.809 72.2953H102.209C99.8936 72.2953 97.9598 71.5194 96.4081 69.9677C95.7052 69.2644 95.1354 68.3371 94.6987 67.1854C94.2624 66.0338 94.0442 64.8094 94.0442 63.5122V63.2031C94.0442 62.0272 94.2503 60.8392 94.6624 59.6391C95.4625 57.2994 97.0325 55.6748 99.3722 54.7654C100.427 54.3533 101.439 54.1472 102.409 54.1472H103.318C104.397 54.1472 105.458 54.3899 106.501 54.8747C108.476 55.7961 109.853 57.2628 110.628 59.2754C111.077 60.4634 111.301 61.5847 111.301 62.6395Z" fill="#281B03"/>
</g>
<defs>
<clipPath id="clip0_276_2805">
<rect width="112.034" height="72" fill="white" transform="translate(0.964844 0.213867)"/>
</clipPath>
</defs>
</svg>
